# Blender v2.79 (sub 0) OBJ File: 'TOWERBASE.blend'
# www.blender.org
mtllib TOWERBASE.mtl
o Cube
v 0.233333 2.230889 0.500000
v 0.166667 2.230889 0.440000
v 0.440000 2.230889 0.166667
v 0.500000 2.230889 0.233333
v 0.257928 2.430888 0.218289
v 0.257928 2.430888 0.284956
v 0.191261 2.430888 0.284955
v 0.500261 2.230889 0.399739
v 0.399740 2.230889 0.500260
v 0.233333 2.381945 0.500000
v 0.166666 2.381945 0.440000
v 0.166666 2.430888 0.385042
v 0.385041 2.430888 0.166667
v 0.440000 2.381945 0.166667
v 0.500000 2.381945 0.233333
v 0.399739 2.381945 0.500261
v 0.500260 2.381945 0.399740
v 0.205132 2.390049 0.230970
v 0.226244 2.397437 0.253921
v 0.233333 2.521544 0.451948
v 0.233333 2.531827 0.426343
v 0.223460 2.525210 0.436156
v 0.426343 2.531827 0.233333
v 0.451947 2.521544 0.233333
v 0.436156 2.525210 0.223461
v 0.376777 2.541606 0.424165
v 0.387293 2.521544 0.452189
v 0.424164 2.541606 0.376778
v 0.452188 2.521544 0.387293
v 0.166667 -0.009427 0.440000
v 0.233333 -0.009427 0.500000
v 0.233333 -0.009427 0.166667
v 0.166667 -0.009427 0.166667
v 0.440000 -0.009427 0.166667
v 0.500000 -0.009427 0.233333
v 0.233333 -0.009427 0.233333
v 0.166667 -0.009427 0.233333
v 0.399740 -0.009427 0.500260
v 0.500261 -0.009427 0.399739
v 0.000000 2.230889 0.440000
v -0.233333 2.230889 0.500000
v -0.166667 2.230889 0.440000
v -0.440000 2.230889 0.166667
v -0.500000 2.230889 0.233333
v 0.000000 2.430888 0.284955
v -0.257928 2.430888 0.218289
v -0.257928 2.430888 0.284956
v -0.191261 2.430888 0.284955
v -0.500261 2.230889 0.399739
v -0.399740 2.230889 0.500260
v 0.000000 2.381945 0.440000
v 0.000000 2.430888 0.385042
v -0.233333 2.381945 0.500000
v -0.166666 2.381945 0.440000
v -0.166666 2.430888 0.385042
v -0.385041 2.430888 0.166667
v -0.440000 2.381945 0.166667
v -0.500000 2.381945 0.233333
v -0.399739 2.381945 0.500261
v -0.500260 2.381945 0.399740
v 0.000000 2.396802 0.254336
v 0.000000 2.390049 0.230970
v -0.205132 2.390049 0.230970
v -0.226244 2.397437 0.253921
v -0.233333 2.521544 0.451948
v -0.233333 2.531827 0.426343
v -0.223460 2.525210 0.436156
v -0.426343 2.531827 0.233333
v -0.451947 2.521544 0.233333
v -0.436156 2.525210 0.223461
v -0.376777 2.541606 0.424165
v -0.387293 2.521544 0.452189
v -0.424164 2.541606 0.376778
v -0.452188 2.521544 0.387293
v -0.166667 -0.009427 0.440000
v 0.000000 -0.009427 0.440000
v 0.000000 -0.009427 0.166667
v -0.233333 -0.009427 0.500000
v -0.233333 -0.009427 0.166667
v -0.166667 -0.009427 0.166667
v -0.440000 -0.009427 0.166667
v -0.500000 -0.009427 0.233333
v 0.000000 -0.009427 0.233333
v -0.233333 -0.009427 0.233333
v -0.166667 -0.009427 0.233333
v -0.399740 -0.009427 0.500260
v -0.500261 -0.009427 0.399739
v 0.440000 2.230889 0.000000
v 0.233333 2.230889 -0.500000
v 0.166667 2.230889 -0.440000
v 0.257928 2.430888 0.000000
v 0.440000 2.230889 -0.166667
v 0.500000 2.230889 -0.233333
v 0.257928 2.430888 -0.218289
v 0.257928 2.430888 -0.284956
v 0.191261 2.430888 -0.284955
v 0.500261 2.230889 -0.399739
v 0.399740 2.230889 -0.500260
v 0.385042 2.430888 0.000000
v 0.440000 2.381945 0.000000
v 0.233333 2.381945 -0.500000
v 0.166666 2.381945 -0.440000
v 0.166666 2.430888 -0.385042
v 0.385041 2.430888 -0.166667
v 0.440000 2.381945 -0.166667
v 0.500000 2.381945 -0.233333
v 0.399739 2.381945 -0.500261
v 0.500260 2.381945 -0.399740
v 0.205132 2.390049 0.000000
v 0.225544 2.398196 0.000000
v 0.205132 2.390049 -0.230970
v 0.226244 2.397437 -0.253921
v 0.233333 2.521544 -0.451948
v 0.233333 2.531827 -0.426343
v 0.223460 2.525210 -0.436156
v 0.426343 2.531827 -0.233333
v 0.451947 2.521544 -0.233333
v 0.436156 2.525210 -0.223461
v 0.376777 2.541606 -0.424165
v 0.387293 2.521544 -0.452189
v 0.424164 2.541606 -0.376778
v 0.452188 2.521544 -0.387293
v 0.166667 -0.009427 -0.440000
v 0.166667 -0.009427 0.000000
v 0.233333 -0.009427 -0.500000
v 0.440000 -0.009427 0.000000
v 0.233333 -0.009427 0.000000
v 0.233333 -0.009427 -0.166667
v 0.166667 -0.009427 -0.166667
v 0.440000 -0.009427 -0.166667
v 0.500000 -0.009427 -0.233333
v 0.233333 -0.009427 -0.233333
v 0.166667 -0.009427 -0.233333
v 0.399740 -0.009427 -0.500260
v 0.500261 -0.009427 -0.399739
v 0.000000 2.230889 -0.440000
v -0.440000 2.230889 0.000000
v 0.000000 2.390049 0.000000
v -0.233333 2.230889 -0.500000
v -0.166667 2.230889 -0.440000
v -0.257928 2.430888 0.000000
v -0.440000 2.230889 -0.166667
v -0.500000 2.230889 -0.233333
v 0.000000 2.430888 -0.284955
v -0.257928 2.430888 -0.218289
v -0.257928 2.430888 -0.284956
v -0.191261 2.430888 -0.284955
v -0.500261 2.230889 -0.399739
v -0.399740 2.230889 -0.500260
v 0.000000 2.381945 -0.440000
v 0.000000 2.430888 -0.385042
v -0.385042 2.430888 0.000000
v -0.440000 2.381945 0.000000
v -0.233333 2.381945 -0.500000
v -0.166666 2.381945 -0.440000
v -0.166666 2.430888 -0.385042
v -0.385041 2.430888 -0.166667
v -0.440000 2.381945 -0.166667
v -0.500000 2.381945 -0.233333
v -0.399739 2.381945 -0.500261
v -0.500260 2.381945 -0.399740
v -0.205132 2.390049 0.000000
v -0.225544 2.398196 0.000000
v 0.000000 2.396802 -0.254336
v 0.000000 2.390049 -0.230970
v -0.205132 2.390049 -0.230970
v -0.226244 2.397437 -0.253921
v -0.233333 2.521544 -0.451948
v -0.233333 2.531827 -0.426343
v -0.223460 2.525210 -0.436156
v -0.426343 2.531827 -0.233333
v -0.451947 2.521544 -0.233333
v -0.436156 2.525210 -0.223461
v -0.376777 2.541606 -0.424165
v -0.387293 2.521544 -0.452189
v -0.424164 2.541606 -0.376778
v -0.452188 2.521544 -0.387293
v -0.166667 -0.009427 -0.440000
v 0.000000 -0.009427 -0.440000
v 0.000000 -0.009427 -0.166667
v 0.000000 -0.009427 0.000000
v -0.166667 -0.009427 0.000000
v -0.233333 -0.009427 -0.500000
v -0.440000 -0.009427 0.000000
v -0.233333 -0.009427 0.000000
v -0.233333 -0.009427 -0.166667
v -0.166667 -0.009427 -0.166667
v -0.440000 -0.009427 -0.166667
v -0.500000 -0.009427 -0.233333
v 0.000000 -0.009427 -0.233333
v -0.233333 -0.009427 -0.233333
v -0.166667 -0.009427 -0.233333
v -0.399740 -0.009427 -0.500260
v -0.500261 -0.009427 -0.399739
vn -0.4825 0.7716 -0.4146
vn 0.0000 1.0000 0.0000
vn 0.0000 -0.0000 1.0000
vn 0.7071 0.0000 0.7071
vn -0.0016 -0.0000 1.0000
vn 0.7433 0.0000 -0.6690
vn 0.5713 0.3025 -0.7630
vn -0.0018 0.6737 -0.7390
vn 1.0000 0.0000 0.0000
vn 1.0000 0.0000 -0.0016
vn -0.7177 0.6963 0.0022
vn -0.4258 0.7984 -0.4258
vn -0.6690 -0.0000 0.7433
vn 0.6761 0.2931 0.6761
vn -0.0000 0.7468 0.6651
vn -0.3391 0.8775 -0.3391
vn 0.6651 0.7468 0.0000
vn 0.9455 0.3255 -0.0015
vn -0.4215 0.7723 -0.4754
vn -0.7630 0.3025 0.5713
vn -0.3514 0.9362 0.0020
vn -0.0017 0.9566 -0.2913
vn -0.2440 0.8999 0.3614
vn 0.3614 0.8999 -0.2440
vn 0.4192 0.8053 0.4192
vn 0.4961 0.8679 -0.0253
vn -0.0253 0.8679 0.4961
vn -0.0015 0.3255 0.9455
vn 0.0000 -1.0000 0.0000
vn 0.4825 0.7716 -0.4146
vn -0.7071 0.0000 0.7071
vn 0.0016 -0.0000 1.0000
vn -0.7433 0.0000 -0.6690
vn -0.5713 0.3025 -0.7630
vn 0.0018 0.6737 -0.7390
vn -1.0000 0.0000 0.0000
vn -1.0000 0.0000 -0.0016
vn 0.7177 0.6963 0.0022
vn 0.4258 0.7984 -0.4258
vn 0.6690 -0.0000 0.7433
vn -0.6761 0.2931 0.6761
vn 0.3391 0.8775 -0.3391
vn -0.6651 0.7468 0.0000
vn -0.9455 0.3255 -0.0015
vn 0.4215 0.7723 -0.4754
vn 0.7630 0.3025 0.5713
vn 0.3514 0.9362 0.0020
vn 0.0017 0.9566 -0.2913
vn 0.2440 0.8999 0.3614
vn -0.3614 0.8999 -0.2440
vn -0.4192 0.8053 0.4192
vn -0.4961 0.8679 -0.0253
vn 0.0253 0.8679 0.4961
vn 0.0015 0.3255 0.9455
vn -0.4825 0.7716 0.4146
vn 0.0000 -0.0000 -1.0000
vn 0.7071 0.0000 -0.7071
vn -0.0016 -0.0000 -1.0000
vn 0.7433 0.0000 0.6690
vn 0.5713 0.3025 0.7630
vn -0.0018 0.6737 0.7390
vn 1.0000 0.0000 0.0016
vn -0.7177 0.6963 -0.0022
vn -0.4258 0.7984 0.4258
vn -0.6690 -0.0000 -0.7433
vn 0.6761 0.2931 -0.6761
vn -0.0000 0.7468 -0.6651
vn -0.3391 0.8775 0.3391
vn 0.9455 0.3255 0.0015
vn -0.4215 0.7723 0.4754
vn -0.7630 0.3025 -0.5713
vn -0.3514 0.9362 -0.0020
vn -0.0017 0.9566 0.2913
vn -0.2440 0.8999 -0.3614
vn 0.3614 0.8999 0.2440
vn 0.4192 0.8053 -0.4192
vn 0.4961 0.8679 0.0253
vn -0.0253 0.8679 -0.4961
vn -0.0015 0.3255 -0.9455
vn 0.4825 0.7716 0.4146
vn -0.7071 0.0000 -0.7071
vn 0.0016 -0.0000 -1.0000
vn -0.7433 0.0000 0.6690
vn -0.5713 0.3025 0.7630
vn 0.0018 0.6737 0.7390
vn -1.0000 0.0000 0.0016
vn 0.7177 0.6963 -0.0022
vn 0.4258 0.7984 0.4258
vn 0.6690 -0.0000 -0.7433
vn -0.6761 0.2931 -0.6761
vn 0.3391 0.8775 0.3391
vn -0.9455 0.3255 0.0015
vn 0.4215 0.7723 0.4754
vn 0.7630 0.3025 -0.5713
vn 0.3514 0.9362 -0.0020
vn 0.0017 0.9566 0.2913
vn 0.2440 0.8999 -0.3614
vn -0.3614 0.8999 0.2440
vn -0.4192 0.8053 -0.4192
vn -0.4961 0.8679 0.0253
vn 0.0253 0.8679 -0.4961
vn 0.0015 0.3255 -0.9455
usemtl Material
s off
f 6//1 7//1 12//1 22//1 21//1
f 99//2 91//2 5//2 13//2
f 2//3 11//3 51//3 40//3
f 8//4 17//4 16//4 9//4
f 9//5 16//5 10//5 1//5
f 3//6 14//6 15//6 4//6
f 13//7 25//7 24//7 15//7 14//7
f 19//8 61//8 45//8 7//8
f 88//9 100//9 14//9 3//9
f 4//10 15//10 17//10 8//10
f 3//6 4//6 35//6 34//6
f 88//9 3//9 34//9 126//9
f 2//3 40//3 76//3 30//3
f 9//5 1//5 31//5 38//5
f 4//10 8//10 39//10 35//10
f 8//4 9//4 38//4 39//4
f 91//11 110//11 19//11 5//11
f 5//12 19//12 7//12 6//12
f 1//13 10//13 11//13 2//13
f 29//14 27//14 16//14 17//14
f 1//13 2//13 30//13 31//13
f 12//15 52//15 51//15 11//15
f 23//16 6//16 21//16 26//16 28//16
f 99//17 13//17 14//17 100//17
f 24//18 29//18 17//18 15//18
f 13//19 5//19 6//19 23//19 25//19
f 20//20 22//20 12//20 11//20 10//20
f 7//2 45//2 52//2 12//2
f 109//21 18//21 19//21 110//21
f 61//22 19//22 18//22 62//22
f 109//2 138//2 62//2 18//2
f 20//23 21//23 22//23
f 23//24 24//24 25//24
f 28//25 26//25 27//25 29//25
f 23//26 28//26 29//26 24//26
f 26//27 21//27 20//27 27//27
f 27//28 20//28 10//28 16//28
f 37//29 30//29 76//29 83//29
f 36//29 31//29 30//29 37//29
f 127//29 32//29 33//29 124//29
f 32//29 36//29 37//29 33//29
f 126//29 34//29 32//29 127//29
f 34//29 35//29 36//29 32//29
f 124//29 33//29 77//29 181//29
f 33//29 37//29 83//29 77//29
f 35//29 39//29 38//29 31//29 36//29
f 47//30 66//30 67//30 55//30 48//30
f 152//2 56//2 46//2 141//2
f 42//3 40//3 51//3 54//3
f 49//31 50//31 59//31 60//31
f 50//32 41//32 53//32 59//32
f 43//33 44//33 58//33 57//33
f 56//34 57//34 58//34 69//34 70//34
f 64//35 48//35 45//35 61//35
f 137//36 43//36 57//36 153//36
f 44//37 49//37 60//37 58//37
f 43//33 81//33 82//33 44//33
f 137//36 184//36 81//36 43//36
f 42//3 75//3 76//3 40//3
f 50//32 86//32 78//32 41//32
f 44//37 82//37 87//37 49//37
f 49//31 87//31 86//31 50//31
f 141//38 46//38 64//38 163//38
f 46//39 47//39 48//39 64//39
f 41//40 42//40 54//40 53//40
f 74//41 60//41 59//41 72//41
f 41//40 78//40 75//40 42//40
f 55//15 54//15 51//15 52//15
f 68//42 73//42 71//42 66//42 47//42
f 152//43 153//43 57//43 56//43
f 69//44 58//44 60//44 74//44
f 56//45 70//45 68//45 47//45 46//45
f 65//46 53//46 54//46 55//46 67//46
f 48//2 55//2 52//2 45//2
f 162//47 163//47 64//47 63//47
f 61//48 62//48 63//48 64//48
f 162//2 63//2 62//2 138//2
f 65//49 67//49 66//49
f 68//50 70//50 69//50
f 73//51 74//51 72//51 71//51
f 68//52 69//52 74//52 73//52
f 71//53 72//53 65//53 66//53
f 72//54 59//54 53//54 65//54
f 85//29 83//29 76//29 75//29
f 84//29 85//29 75//29 78//29
f 185//29 182//29 80//29 79//29
f 79//29 80//29 85//29 84//29
f 184//29 185//29 79//29 81//29
f 81//29 79//29 84//29 82//29
f 182//29 181//29 77//29 80//29
f 80//29 77//29 83//29 85//29
f 82//29 84//29 78//29 86//29 87//29
f 95//55 114//55 115//55 103//55 96//55
f 99//2 104//2 94//2 91//2
f 90//56 136//56 150//56 102//56
f 97//57 98//57 107//57 108//57
f 98//58 89//58 101//58 107//58
f 92//59 93//59 106//59 105//59
f 104//60 105//60 106//60 117//60 118//60
f 112//61 96//61 144//61 164//61
f 88//9 92//9 105//9 100//9
f 93//62 97//62 108//62 106//62
f 92//59 130//59 131//59 93//59
f 88//9 126//9 130//9 92//9
f 90//56 123//56 179//56 136//56
f 98//58 134//58 125//58 89//58
f 93//62 131//62 135//62 97//62
f 97//57 135//57 134//57 98//57
f 91//63 94//63 112//63 110//63
f 94//64 95//64 96//64 112//64
f 89//65 90//65 102//65 101//65
f 122//66 108//66 107//66 120//66
f 89//65 125//65 123//65 90//65
f 103//67 102//67 150//67 151//67
f 116//68 121//68 119//68 114//68 95//68
f 99//17 100//17 105//17 104//17
f 117//69 106//69 108//69 122//69
f 104//70 118//70 116//70 95//70 94//70
f 113//71 101//71 102//71 103//71 115//71
f 96//2 103//2 151//2 144//2
f 109//72 110//72 112//72 111//72
f 164//73 165//73 111//73 112//73
f 109//2 111//2 165//2 138//2
f 113//74 115//74 114//74
f 116//75 118//75 117//75
f 121//76 122//76 120//76 119//76
f 116//77 117//77 122//77 121//77
f 119//78 120//78 113//78 114//78
f 120//79 107//79 101//79 113//79
f 133//29 190//29 179//29 123//29
f 132//29 133//29 123//29 125//29
f 127//29 124//29 129//29 128//29
f 128//29 129//29 133//29 132//29
f 126//29 127//29 128//29 130//29
f 130//29 128//29 132//29 131//29
f 124//29 181//29 180//29 129//29
f 129//29 180//29 190//29 133//29
f 131//29 132//29 125//29 134//29 135//29
f 146//80 147//80 156//80 170//80 169//80
f 152//2 141//2 145//2 157//2
f 140//56 155//56 150//56 136//56
f 148//81 161//81 160//81 149//81
f 149//82 160//82 154//82 139//82
f 142//83 158//83 159//83 143//83
f 157//84 173//84 172//84 159//84 158//84
f 167//85 164//85 144//85 147//85
f 137//36 153//36 158//36 142//36
f 143//86 159//86 161//86 148//86
f 142//83 143//83 189//83 188//83
f 137//36 142//36 188//36 184//36
f 140//56 136//56 179//56 178//56
f 149//82 139//82 183//82 193//82
f 143//86 148//86 194//86 189//86
f 148//81 149//81 193//81 194//81
f 141//87 163//87 167//87 145//87
f 145//88 167//88 147//88 146//88
f 139//89 154//89 155//89 140//89
f 177//90 175//90 160//90 161//90
f 139//89 140//89 178//89 183//89
f 156//67 151//67 150//67 155//67
f 171//91 146//91 169//91 174//91 176//91
f 152//43 157//43 158//43 153//43
f 172//92 177//92 161//92 159//92
f 157//93 145//93 146//93 171//93 173//93
f 168//94 170//94 156//94 155//94 154//94
f 147//2 144//2 151//2 156//2
f 162//95 166//95 167//95 163//95
f 164//96 167//96 166//96 165//96
f 162//2 138//2 165//2 166//2
f 168//97 169//97 170//97
f 171//98 172//98 173//98
f 176//99 174//99 175//99 177//99
f 171//100 176//100 177//100 172//100
f 174//101 169//101 168//101 175//101
f 175//102 168//102 154//102 160//102
f 192//29 178//29 179//29 190//29
f 191//29 183//29 178//29 192//29
f 185//29 186//29 187//29 182//29
f 186//29 191//29 192//29 187//29
f 184//29 188//29 186//29 185//29
f 188//29 189//29 191//29 186//29
f 182//29 187//29 180//29 181//29
f 187//29 192//29 190//29 180//29
f 189//29 194//29 193//29 183//29 191//29
