# Blender v2.79 (sub 0) OBJ File: ''
# www.blender.org
mtllib missilev2.mtl
o Cone
v -0.040367 4.549367 -0.361307
v -0.040367 5.032460 0.018566
v 0.149570 4.549367 -0.310414
v 0.288613 4.549367 -0.171370
v 0.339506 4.549367 0.018566
v 0.288613 4.549367 0.208503
v 0.149570 4.549367 0.347546
v -0.040367 4.549367 0.398439
v -0.230303 4.549367 0.347546
v -0.369346 4.549367 0.208503
v -0.420240 4.549367 0.018567
v -0.369346 4.549367 -0.171370
v -0.230303 4.549367 -0.310413
v 0.149570 3.435634 -0.310414
v 0.149570 3.435634 0.347546
v 0.140004 3.087526 0.122703
v 0.288613 3.435634 0.208503
v -0.369346 3.435634 0.208503
v 0.339506 3.435634 0.018566
v -0.369346 3.435634 -0.171370
v -0.040367 3.435634 0.398439
v -0.230303 3.435634 0.347546
v -0.230303 3.435634 -0.310413
v 0.288613 3.435634 -0.171370
v -0.420239 3.435634 0.018567
v -0.040367 3.435634 -0.361307
v -0.220737 3.087526 0.122703
v -0.144503 1.713719 0.198937
v -0.144503 3.087526 0.198937
v -0.144503 3.087526 -0.161805
v 0.063771 3.087526 -0.161805
v 0.063771 3.087526 0.198937
v 0.140004 3.087526 -0.085571
v -0.248641 3.087526 0.018566
v -0.040367 3.087526 0.226840
v 0.167907 3.087526 0.018566
v -0.220737 3.087526 -0.085571
v -0.040367 3.087526 -0.189708
v 0.063771 1.713719 -0.161805
v -0.040367 0.145000 -0.189709
v -0.040367 1.713719 -0.189709
v 0.140004 1.713719 0.122703
v -0.144504 1.713719 -0.161805
v -0.220738 1.713719 0.122703
v 0.063771 1.713719 0.198937
v 0.140004 1.713719 -0.085571
v -0.248641 1.713719 0.018566
v -0.040367 1.713719 0.226840
v 0.167907 1.713719 0.018566
v -0.220738 1.713719 -0.085571
v -0.144504 0.145000 -0.161805
v -0.220738 0.032461 -0.085571
v -0.220738 0.145000 -0.085571
v -0.144503 0.145000 0.198936
v -0.540367 0.161554 0.465202
v -0.220738 0.145000 0.122703
v 0.459633 1.259657 0.465202
v 0.063771 0.145000 -0.161805
v 0.459633 0.161554 -0.428071
v 0.140004 0.145000 -0.085571
v 0.063771 0.145000 0.198936
v -0.248641 0.145000 0.018566
v -0.040367 0.145000 0.226840
v 0.167907 0.145000 0.018565
v -0.487003 1.259657 -0.481434
v 0.406270 1.259657 0.518566
v 0.459633 0.161554 0.465202
v 0.140004 0.145000 0.122703
v 0.406270 0.161554 0.518566
v 0.459633 1.259657 -0.428071
v 0.406270 0.161554 -0.481434
v 0.406270 1.259657 -0.481434
v -0.540367 0.161554 -0.428071
v -0.540367 1.259657 -0.428071
v -0.487003 0.161554 -0.481434
v -0.540367 1.259657 0.465202
v -0.487003 0.161554 0.518566
v -0.487003 1.259657 0.518566
v -0.040367 0.032461 0.226840
v 0.015092 0.032460 0.114622
v 0.063771 0.032461 0.198936
v -0.040367 0.032461 -0.189709
v -0.144503 0.032461 0.198936
v 0.140004 0.032461 0.122703
v -0.144504 0.032461 -0.161805
v 0.063771 0.032461 -0.161805
v -0.220738 0.032461 0.122703
v 0.140004 0.032461 -0.085571
v -0.248641 0.032461 0.018566
v 0.167907 0.032461 0.018565
v -0.040367 0.032460 0.129482
v 0.015092 1.180040 0.114623
v 0.055690 0.032460 -0.036892
v -0.136424 0.032460 -0.036892
v -0.151283 0.032460 0.018566
v 0.070550 0.032460 0.018565
v -0.095825 0.032460 -0.077491
v -0.040367 0.032460 -0.092351
v -0.136424 0.032460 0.074024
v -0.095825 0.032460 0.114622
v 0.055690 0.032460 0.074024
v 0.015092 0.032460 -0.077491
v -0.095825 1.180040 0.114623
v -0.095825 1.180040 -0.077491
v 0.055690 1.180040 -0.036892
v -0.151283 1.180040 0.018566
v -0.040367 1.180040 0.129482
v 0.070550 1.180040 0.018565
v -0.136424 1.180040 -0.036892
v -0.040367 1.180040 -0.092351
v 0.055690 1.180040 0.074024
v 0.015092 1.180040 -0.077491
v -0.136424 1.180040 0.074024
vn 0.2061 0.6049 -0.7692
vn 0.5631 0.6049 -0.5631
vn 0.7692 0.6049 -0.2061
vn 0.7692 0.6049 0.2061
vn 0.5631 0.6049 0.5631
vn 0.2061 0.6049 0.7692
vn -0.2061 0.6049 0.7692
vn -0.5631 0.6049 0.5631
vn -0.7692 0.6049 0.2061
vn -0.7692 0.6049 -0.2061
vn -0.5631 0.6049 -0.5631
vn -0.2061 0.6049 -0.7692
vn 0.7071 0.0000 -0.7071
vn 0.6384 -0.4299 0.6384
vn -0.9659 -0.0000 0.2588
vn 0.9659 -0.0000 0.2588
vn -0.7071 0.0000 -0.7071
vn 0.2588 -0.0000 0.9659
vn -0.7071 -0.0000 0.7071
vn -0.2588 0.0000 -0.9659
vn 0.9659 0.0000 -0.2588
vn -0.9659 -0.0000 -0.2588
vn 0.7071 -0.0000 0.7071
vn 0.2588 0.0000 -0.9659
vn -0.2588 -0.0000 0.9659
vn -0.2337 -0.4299 -0.8721
vn 0.6384 -0.4299 -0.6384
vn -0.8721 -0.4299 0.2337
vn 0.2337 -0.4299 0.8721
vn 0.8721 -0.4299 -0.2337
vn -0.8721 -0.4299 -0.2337
vn -0.2337 -0.4299 0.8721
vn 0.8721 -0.4299 0.2337
vn -0.6384 -0.4299 -0.6384
vn 0.2337 -0.4299 -0.8721
vn -0.6384 -0.4299 0.6384
vn -0.0250 -0.9994 0.0250
vn 0.4923 0.7179 0.4923
vn 0.0250 -0.9994 -0.0250
vn 0.6823 0.0000 -0.7311
vn -0.6823 -0.0000 0.7311
vn 0.7311 0.0000 -0.6823
vn 0.0250 -0.9994 0.0250
vn -0.6823 0.0000 -0.7311
vn 0.4923 0.7179 -0.4923
vn 0.7311 -0.0000 0.6823
vn -0.7311 -0.0000 0.6823
vn -0.0250 -0.9994 -0.0250
vn -0.4923 0.7179 -0.4923
vn -0.4923 0.7179 0.4923
vn -0.7311 0.0000 -0.6823
vn 0.6823 -0.0000 0.7311
vn -0.0000 -1.0000 0.0000
usemtl None
s 1
f 1//1 2//1 3//1
f 3//2 2//2 4//2
f 4//3 2//3 5//3
f 5//4 2//4 6//4
f 6//5 2//5 7//5
f 7//6 2//6 8//6
f 8//7 2//7 9//7
f 9//8 2//8 10//8
f 10//9 2//9 11//9
f 11//10 2//10 12//10
f 12//11 2//11 13//11
f 13//12 2//12 1//12
f 4//13 14//13 3//13
f 15//14 16//14 17//14
f 11//15 18//15 10//15
f 5//16 17//16 19//16
f 13//17 20//17 12//17
f 7//18 21//18 15//18
f 10//19 22//19 9//19
f 1//20 23//20 13//20
f 5//21 24//21 4//21
f 12//22 25//22 11//22
f 6//23 15//23 17//23
f 3//24 26//24 1//24
f 8//25 22//25 21//25
f 27//19 28//19 29//19
f 26//26 30//26 23//26
f 24//27 31//27 14//27
f 25//28 27//28 18//28
f 21//29 32//29 15//29
f 19//30 33//30 24//30
f 20//31 34//31 25//31
f 21//32 29//32 35//32
f 17//33 36//33 19//33
f 23//34 37//34 20//34
f 14//35 38//35 26//35
f 18//36 29//36 22//36
f 39//24 40//24 41//24
f 32//23 42//23 16//23
f 38//20 43//20 30//20
f 33//13 39//13 31//13
f 34//15 44//15 27//15
f 35//18 45//18 32//18
f 36//21 46//21 33//21
f 37//22 47//22 34//22
f 29//25 48//25 35//25
f 36//16 42//16 49//16
f 30//17 50//17 37//17
f 31//24 41//24 38//24
f 51//17 52//17 53//17
f 54//37 55//37 56//37
f 45//38 57//38 42//38
f 41//20 51//20 43//20
f 58//39 59//39 60//39
f 47//15 56//15 44//15
f 48//18 61//18 45//18
f 49//21 60//21 46//21
f 50//22 62//22 47//22
f 28//25 63//25 48//25
f 42//16 64//16 49//16
f 51//40 65//40 43//40
f 66//23 67//23 57//23
f 61//41 66//41 45//41
f 68//42 57//42 67//42
f 61//43 67//43 69//43
f 70//13 71//13 72//13
f 58//44 72//44 71//44
f 46//45 72//45 39//45
f 60//46 70//46 46//46
f 65//17 73//17 74//17
f 53//47 74//47 73//47
f 53//48 75//48 51//48
f 43//49 74//49 50//49
f 76//19 77//19 78//19
f 28//50 76//50 78//50
f 56//51 76//51 44//51
f 54//52 78//52 77//52
f 79//53 80//53 81//53
f 58//24 82//24 40//24
f 56//19 83//19 54//19
f 61//23 84//23 68//23
f 40//20 85//20 51//20
f 60//13 86//13 58//13
f 62//15 87//15 56//15
f 63//18 81//18 61//18
f 64//21 88//21 60//21
f 53//22 89//22 62//22
f 54//25 79//25 63//25
f 68//16 90//16 64//16
f 91//20 92//20 80//20
f 90//53 93//53 88//53
f 89//53 94//53 95//53
f 83//53 91//53 79//53
f 84//53 96//53 90//53
f 52//53 97//53 94//53
f 86//53 98//53 82//53
f 83//53 99//53 100//53
f 81//53 101//53 84//53
f 85//53 98//53 97//53
f 88//53 102//53 86//53
f 89//53 99//53 87//53
f 92//53 103//53 104//53
f 96//15 105//15 93//15
f 94//16 106//16 95//16
f 100//24 107//24 91//24
f 101//22 108//22 96//22
f 97//23 109//23 94//23
f 102//25 110//25 98//25
f 99//13 103//13 100//13
f 80//17 111//17 101//17
f 98//18 104//18 97//18
f 93//19 112//19 102//19
f 95//21 113//21 99//21
f 4//13 24//13 14//13
f 15//14 32//14 16//14
f 11//15 25//15 18//15
f 5//16 6//16 17//16
f 13//17 23//17 20//17
f 7//18 8//18 21//18
f 10//19 18//19 22//19
f 1//20 26//20 23//20
f 5//21 19//21 24//21
f 12//22 20//22 25//22
f 6//23 7//23 15//23
f 3//24 14//24 26//24
f 8//25 9//25 22//25
f 27//19 44//19 28//19
f 26//26 38//26 30//26
f 24//27 33//27 31//27
f 25//28 34//28 27//28
f 21//29 35//29 32//29
f 19//30 36//30 33//30
f 20//31 37//31 34//31
f 21//32 22//32 29//32
f 17//33 16//33 36//33
f 23//34 30//34 37//34
f 14//35 31//35 38//35
f 18//36 27//36 29//36
f 39//24 58//24 40//24
f 32//23 45//23 42//23
f 38//20 41//20 43//20
f 33//13 46//13 39//13
f 34//15 47//15 44//15
f 35//18 48//18 45//18
f 36//21 49//21 46//21
f 37//22 50//22 47//22
f 29//25 28//25 48//25
f 36//16 16//16 42//16
f 30//17 43//17 50//17
f 31//24 39//24 41//24
f 51//17 85//17 52//17
f 54//37 77//37 55//37
f 45//38 66//38 57//38
f 41//20 40//20 51//20
f 58//39 71//39 59//39
f 47//15 62//15 56//15
f 48//18 63//18 61//18
f 49//21 64//21 60//21
f 50//22 53//22 62//22
f 28//25 54//25 63//25
f 42//16 68//16 64//16
f 51//40 75//40 65//40
f 66//23 69//23 67//23
f 61//41 69//41 66//41
f 68//42 42//42 57//42
f 61//43 68//43 67//43
f 70//13 59//13 71//13
f 58//44 39//44 72//44
f 46//45 70//45 72//45
f 60//46 59//46 70//46
f 65//17 75//17 73//17
f 53//47 50//47 74//47
f 53//48 73//48 75//48
f 43//49 65//49 74//49
f 76//19 55//19 77//19
f 28//50 44//50 76//50
f 56//51 55//51 76//51
f 54//52 28//52 78//52
f 79//53 91//53 80//53
f 58//24 86//24 82//24
f 56//19 87//19 83//19
f 61//23 81//23 84//23
f 40//20 82//20 85//20
f 60//13 88//13 86//13
f 62//15 89//15 87//15
f 63//18 79//18 81//18
f 64//21 90//21 88//21
f 53//22 52//22 89//22
f 54//25 83//25 79//25
f 68//16 84//16 90//16
f 91//20 107//20 92//20
f 90//53 96//53 93//53
f 89//53 52//53 94//53
f 83//53 100//53 91//53
f 84//53 101//53 96//53
f 52//53 85//53 97//53
f 86//53 102//53 98//53
f 83//53 87//53 99//53
f 81//53 80//53 101//53
f 85//53 82//53 98//53
f 88//53 93//53 102//53
f 89//53 95//53 99//53
f 104//53 110//53 112//53
f 112//53 105//53 108//53
f 108//53 111//53 92//53
f 92//53 107//53 103//53
f 103//53 113//53 106//53
f 106//53 109//53 103//53
f 104//53 112//53 108//53
f 108//53 92//53 104//53
f 103//53 109//53 104//53
f 96//15 108//15 105//15
f 94//16 109//16 106//16
f 100//24 103//24 107//24
f 101//22 111//22 108//22
f 97//23 104//23 109//23
f 102//25 112//25 110//25
f 99//13 113//13 103//13
f 80//17 92//17 111//17
f 98//18 110//18 104//18
f 93//19 105//19 112//19
f 95//21 106//21 113//21
