# Blender v2.79 (sub 0) OBJ File: 'missle.blend'
# www.blender.org
mtllib missile.mtl
o Cone
v 0.921732 11.896861 -0.212528
v 0.921732 13.032758 0.355420
v 1.205706 11.896861 -0.136438
v 1.413590 11.896861 0.071446
v 1.489681 11.896861 0.355420
v 1.413590 11.896861 0.639395
v 1.205706 11.896861 0.847278
v 0.921732 11.896861 0.923369
v 0.637758 11.896861 0.847278
v 0.429874 11.896861 0.639395
v 0.353783 11.896861 0.355421
v 0.429874 11.896861 0.071446
v 0.637757 11.896861 -0.136437
v 0.921732 9.278140 -0.212528
v 1.205706 9.278140 -0.136438
v 1.413590 9.278140 0.071446
v 1.489681 9.278140 0.355420
v 1.413590 9.278140 0.639395
v 1.205706 9.278140 0.847278
v 0.921732 9.278140 0.923369
v 0.637758 9.278140 0.847278
v 0.429874 9.278140 0.639395
v 0.353784 9.278140 0.355421
v 0.429874 9.278140 0.071446
v 0.637757 9.278140 -0.136437
v 0.921732 8.459633 0.044029
v 1.077428 8.459633 0.085748
v 1.191405 8.459633 0.199725
v 1.233123 8.459633 0.355420
v 1.191405 8.459633 0.511116
v 1.077428 8.459633 0.625093
v 0.921732 8.459633 0.666811
v 0.766037 8.459633 0.625093
v 0.652060 8.459633 0.511116
v 0.610341 8.459633 0.355421
v 0.652060 8.459633 0.199725
v 0.766037 8.459633 0.085748
v 0.921732 5.229399 0.044029
v 1.077428 5.229399 0.085748
v 1.191405 5.229399 0.199725
v 1.233123 5.229399 0.355420
v 1.191405 5.229399 0.511116
v 1.077428 5.229399 0.625093
v 0.921732 5.229399 0.666811
v 0.766037 5.229399 0.625093
v 0.652059 5.229399 0.511116
v 0.610341 5.229399 0.355421
v 0.652059 5.229399 0.199725
v 0.766036 5.229399 0.085748
v 0.921732 1.540868 0.044029
v 1.077428 1.540868 0.085748
v 1.191405 1.540868 0.199725
v 1.233123 1.540868 0.355420
v 1.191405 1.540868 0.511116
v 1.077428 1.540868 0.625093
v 0.921732 1.540868 0.666811
v 0.766037 1.540868 0.625093
v 0.652059 1.540868 0.511116
v 0.610341 1.540868 0.355421
v 0.652059 1.540868 0.199725
v 0.766036 1.540868 0.085748
v 1.669283 4.161763 1.023187
v 1.589499 4.161763 1.102971
v 1.669283 1.579792 1.023187
v 1.589499 1.579792 1.102971
v 1.589499 4.161763 -0.392130
v 1.669283 4.161763 -0.312346
v 1.589499 1.579792 -0.392130
v 1.669283 1.579792 -0.312346
v 0.174181 4.161763 -0.312346
v 0.253965 4.161763 -0.392130
v 0.174181 1.579792 -0.312346
v 0.253965 1.579792 -0.392130
v 0.253965 4.161763 1.102971
v 0.174181 4.161763 1.023187
v 0.253965 1.579792 1.102971
v 0.174181 1.579792 1.023187
v 0.921732 1.276255 0.044029
v 1.077428 1.276255 0.085748
v 1.191405 1.276255 0.199725
v 1.233123 1.276255 0.355420
v 1.191405 1.276255 0.511116
v 1.077428 1.276255 0.625093
v 0.921732 1.276255 0.666811
v 0.766037 1.276255 0.625093
v 0.652059 1.276255 0.511116
v 0.610341 1.276255 0.355421
v 0.652059 1.276255 0.199725
v 0.766036 1.276255 0.085748
v 0.921732 1.276254 0.189589
v 1.004648 1.276254 0.211806
v 1.065347 1.276254 0.272505
v 1.087564 1.276254 0.355420
v 1.065347 1.276254 0.438336
v 1.004648 1.276254 0.499035
v 0.921732 1.276254 0.521252
v 0.838816 1.276254 0.499035
v 0.778117 1.276254 0.438336
v 0.755900 1.276254 0.355421
v 0.778117 1.276254 0.272505
v 0.838816 1.276254 0.211806
v 0.921732 3.974560 0.189589
v 1.004648 3.974560 0.211806
v 1.065347 3.974560 0.272505
v 1.087564 3.974560 0.355420
v 1.065347 3.974560 0.438336
v 1.004648 3.974560 0.499035
v 0.921732 3.974560 0.521252
v 0.838816 3.974560 0.499035
v 0.778117 3.974560 0.438336
v 0.755900 3.974560 0.355421
v 0.778117 3.974560 0.272505
v 0.838816 3.974560 0.211806
vn 0.2331 0.4349 -0.8698
vn 0.6367 0.4349 -0.6367
vn 0.8698 0.4349 -0.2331
vn 0.8698 0.4349 0.2331
vn 0.6367 0.4349 0.6367
vn 0.2331 0.4349 0.8698
vn -0.2331 0.4349 0.8698
vn -0.6367 0.4349 0.6367
vn -0.8698 0.4349 0.2331
vn -0.8698 0.4349 -0.2331
vn -0.6367 0.4349 -0.6367
vn -0.2331 0.4349 -0.8698
vn 0.7071 0.0000 -0.7071
vn 0.6768 -0.2898 0.6768
vn -0.9659 -0.0000 0.2588
vn 0.9659 0.0000 0.2588
vn -0.7071 -0.0000 -0.7071
vn 0.2588 0.0000 0.9659
vn -0.7071 -0.0000 0.7071
vn -0.2588 -0.0000 -0.9659
vn 0.9659 0.0000 -0.2588
vn -0.9659 -0.0000 -0.2588
vn 0.7071 0.0000 0.7071
vn 0.2588 0.0000 -0.9659
vn -0.2588 -0.0000 0.9659
vn -0.2477 -0.2898 -0.9245
vn 0.6768 -0.2898 -0.6768
vn -0.9245 -0.2898 0.2477
vn 0.2477 -0.2898 0.9245
vn 0.9245 -0.2898 -0.2477
vn -0.9245 -0.2898 -0.2477
vn -0.2477 -0.2898 0.9245
vn 0.9245 -0.2898 0.2477
vn -0.6768 -0.2898 -0.6768
vn 0.2477 -0.2898 -0.9245
vn -0.6768 -0.2898 0.6768
vn -0.0393 -0.9985 0.0393
vn 0.5913 0.5483 0.5913
vn 0.0393 -0.9985 -0.0393
vn 0.6823 0.0000 -0.7311
vn -0.6823 0.0000 0.7311
vn 0.7311 0.0000 -0.6823
vn 0.0393 -0.9985 0.0393
vn -0.6823 0.0000 -0.7311
vn 0.5913 0.5483 -0.5913
vn 0.7311 0.0000 0.6823
vn -0.7311 0.0000 0.6823
vn -0.0393 -0.9985 -0.0393
vn -0.5913 0.5483 -0.5913
vn -0.5913 0.5483 0.5913
vn -0.7311 0.0000 -0.6823
vn 0.6823 0.0000 0.7311
vn 0.0000 -1.0000 0.0000
usemtl None
s off
f 1//1 2//1 3//1
f 3//2 2//2 4//2
f 4//3 2//3 5//3
f 5//4 2//4 6//4
f 6//5 2//5 7//5
f 7//6 2//6 8//6
f 8//7 2//7 9//7
f 9//8 2//8 10//8
f 10//9 2//9 11//9
f 11//10 2//10 12//10
f 12//11 2//11 13//11
f 13//12 2//12 1//12
f 4//13 15//13 3//13
f 19//14 30//14 18//14
f 11//15 22//15 10//15
f 5//16 18//16 17//16
f 13//17 24//17 12//17
f 7//18 20//18 19//18
f 10//19 21//19 9//19
f 1//20 25//20 13//20
f 5//21 16//21 4//21
f 12//22 23//22 11//22
f 6//23 19//23 18//23
f 3//24 14//24 1//24
f 8//25 21//25 20//25
f 34//19 45//19 33//19
f 14//26 37//26 25//26
f 16//27 27//27 15//27
f 23//28 34//28 22//28
f 20//29 31//29 19//29
f 17//30 28//30 16//30
f 24//31 35//31 23//31
f 20//32 33//32 32//32
f 18//33 29//33 17//33
f 25//34 36//34 24//34
f 15//35 26//35 14//35
f 22//36 33//36 21//36
f 39//24 50//24 38//24
f 31//23 42//23 30//23
f 26//20 49//20 37//20
f 28//13 39//13 27//13
f 35//15 46//15 34//15
f 32//18 43//18 31//18
f 29//21 40//21 28//21
f 36//22 47//22 35//22
f 33//25 44//25 32//25
f 29//16 42//16 41//16
f 37//17 48//17 36//17
f 27//24 38//24 26//24
f 61//17 88//17 60//17
f 57//37 77//37 58//37
f 43//38 62//38 42//38
f 38//20 61//20 49//20
f 51//39 69//39 52//39
f 47//15 58//15 46//15
f 44//18 55//18 43//18
f 41//21 52//21 40//21
f 48//22 59//22 47//22
f 45//25 56//25 44//25
f 42//16 53//16 41//16
f 61//40 71//40 49//40
f 63//23 64//23 62//23
f 55//41 63//41 43//41
f 54//42 62//42 64//42
f 55//43 64//43 65//43
f 67//13 68//13 66//13
f 51//44 66//44 68//44
f 40//45 66//45 39//45
f 52//46 67//46 40//46
f 71//17 72//17 70//17
f 60//47 70//47 72//47
f 60//48 73//48 61//48
f 49//49 70//49 48//49
f 75//19 76//19 74//19
f 45//50 75//50 74//50
f 58//51 75//51 46//51
f 57//52 74//52 76//52
f 84//53 95//53 83//53
f 51//24 78//24 50//24
f 58//19 85//19 57//19
f 55//23 82//23 54//23
f 50//20 89//20 61//20
f 52//13 79//13 51//13
f 59//15 86//15 58//15
f 56//18 83//18 55//18
f 53//21 80//21 52//21
f 60//22 87//22 59//22
f 57//25 84//25 56//25
f 54//16 81//16 53//16
f 96//20 107//20 95//20
f 81//53 92//53 80//53
f 87//53 100//53 99//53
f 85//53 96//53 84//53
f 82//53 93//53 81//53
f 88//53 101//53 100//53
f 79//53 90//53 78//53
f 85//53 98//53 97//53
f 83//53 94//53 82//53
f 89//53 90//53 101//53
f 80//53 91//53 79//53
f 87//53 98//53 86//53
f 107//53 109//53 113//53
f 93//15 104//15 92//15
f 100//16 111//16 99//16
f 97//24 108//24 96//24
f 94//22 105//22 93//22
f 101//23 112//23 100//23
f 91//25 102//25 90//25
f 98//13 109//13 97//13
f 95//17 106//17 94//17
f 90//18 113//18 101//18
f 92//19 103//19 91//19
f 99//21 110//21 98//21
f 4//13 16//13 15//13
f 19//14 31//14 30//14
f 11//15 23//15 22//15
f 5//16 6//16 18//16
f 13//17 25//17 24//17
f 7//18 8//18 20//18
f 10//19 22//19 21//19
f 1//20 14//20 25//20
f 5//21 17//21 16//21
f 12//22 24//22 23//22
f 6//23 7//23 19//23
f 3//24 15//24 14//24
f 8//25 9//25 21//25
f 34//19 46//19 45//19
f 14//26 26//26 37//26
f 16//27 28//27 27//27
f 23//28 35//28 34//28
f 20//29 32//29 31//29
f 17//30 29//30 28//30
f 24//31 36//31 35//31
f 20//32 21//32 33//32
f 18//33 30//33 29//33
f 25//34 37//34 36//34
f 15//35 27//35 26//35
f 22//36 34//36 33//36
f 39//24 51//24 50//24
f 31//23 43//23 42//23
f 26//20 38//20 49//20
f 28//13 40//13 39//13
f 35//15 47//15 46//15
f 32//18 44//18 43//18
f 29//21 41//21 40//21
f 36//22 48//22 47//22
f 33//25 45//25 44//25
f 29//16 30//16 42//16
f 37//17 49//17 48//17
f 27//24 39//24 38//24
f 61//17 89//17 88//17
f 57//37 76//37 77//37
f 43//38 63//38 62//38
f 38//20 50//20 61//20
f 51//39 68//39 69//39
f 47//15 59//15 58//15
f 44//18 56//18 55//18
f 41//21 53//21 52//21
f 48//22 60//22 59//22
f 45//25 57//25 56//25
f 42//16 54//16 53//16
f 61//40 73//40 71//40
f 63//23 65//23 64//23
f 55//41 65//41 63//41
f 54//42 42//42 62//42
f 55//43 54//43 64//43
f 67//13 69//13 68//13
f 51//44 39//44 66//44
f 40//45 67//45 66//45
f 52//46 69//46 67//46
f 71//17 73//17 72//17
f 60//47 48//47 70//47
f 60//48 72//48 73//48
f 49//49 71//49 70//49
f 75//19 77//19 76//19
f 45//50 46//50 75//50
f 58//51 77//51 75//51
f 57//52 45//52 74//52
f 84//53 96//53 95//53
f 51//24 79//24 78//24
f 58//19 86//19 85//19
f 55//23 83//23 82//23
f 50//20 78//20 89//20
f 52//13 80//13 79//13
f 59//15 87//15 86//15
f 56//18 84//18 83//18
f 53//21 81//21 80//21
f 60//22 88//22 87//22
f 57//25 85//25 84//25
f 54//16 82//16 81//16
f 96//20 108//20 107//20
f 81//53 93//53 92//53
f 87//53 88//53 100//53
f 85//53 97//53 96//53
f 82//53 94//53 93//53
f 88//53 89//53 101//53
f 79//53 91//53 90//53
f 85//53 86//53 98//53
f 83//53 95//53 94//53
f 89//53 78//53 90//53
f 80//53 92//53 91//53
f 87//53 99//53 98//53
f 113//53 102//53 103//53
f 103//53 104//53 105//53
f 105//53 106//53 107//53
f 107//53 108//53 109//53
f 109//53 110//53 111//53
f 111//53 112//53 109//53
f 113//53 103//53 105//53
f 105//53 107//53 113//53
f 109//53 112//53 113//53
f 93//15 105//15 104//15
f 100//16 112//16 111//16
f 97//24 109//24 108//24
f 94//22 106//22 105//22
f 101//23 113//23 112//23
f 91//25 103//25 102//25
f 98//13 110//13 109//13
f 95//17 107//17 106//17
f 90//18 102//18 113//18
f 92//19 104//19 103//19
f 99//21 111//21 110//21
